<svg xmlns="http://www.w3.org/2000/svg" viewBox="0 0 418.4 105.2"><style type="text/css"> .st0{fill:#efefef;}
</style><path class="st0" d="M313.6 52.9c0-14.3 0-28.7 0-43 0-7.8 2.1-9.9 9.7-9.9 28.5 0 57 0 85.5 0 7.3 0 9.6 2.2 9.6 9.5 0 28.8 0 57.6 0 86.5 0 7.1-2.2 9.2-9.2 9.2 -28.8 0-57.6 0-86.5 0 -6.9 0-9-2-9-8.9C313.6 81.8 313.6 67.4 313.6 52.9zM370.1 42.2c1-3.9-2.3-3.4-5.2-3.5 -1.8-0.1-3.7 0.1-5.5 0 -4.7-0.5-6 1.7-5.9 6.1 0.2 11.3 0 22.6 0.1 34 0.2 14.7-2 11.9 13 12.3 3.3 0.1 4.4-1.2 4.3-4.4 -0.1-7.7-0.1-15.3 0-23 0-2 0.3-4 0.9-5.8 1.2-4 4.4-5.1 8.2-4.9 3.8 0.2 6 2.3 6.2 5.9 0.5 6.6 0.7 13.3 0.8 19.9 0.1 13.2 0 13.2 13.3 12.3 2.5-0.2 3.6-0.8 3.6-3.5 -0.1-10.7 0.3-21.3-0.2-32 -0.6-12.2-8.8-19.5-20.3-18C378.9 38.1 374.6 40.6 370.1 42.2zM344.9 64.7c0-4.8 0-9.7 0-14.5 0-12.4 0-12.4-12.6-11.6 -3.1 0.2-4.3 1.2-4.3 4.5 0.2 11.8 0.1 23.6 0.1 35.4 0 13.2 0 13.2 13.1 12.4 2.8-0.2 3.8-1.1 3.7-3.9C344.8 79.7 344.9 72.2 344.9 64.7zM336.3 33c5.6 0.1 9.8-3.9 9.9-9.5 0.1-5.4-4.2-10-9.5-10.1 -5.3-0.1-9.8 4.4-9.9 9.7C326.7 28.7 330.8 32.9 336.3 33z"/><path class="st0" d="M282.6 89.8c-0.1-1.8-0.2-3.2-0.3-4.8 -13.5 8.7-25.9 8.2-34.3-1.3 -9-10.1-8.7-28.2 0.5-38.7 7.9-9 20.1-9.8 32.8-1.7 0-5 0-9.5 0-14.1 0-4.5 0-9 0-13.8 5.4 0 10.5 0 15.8 0 0 24.9 0 49.4 0 74.3C292.3 89.8 287.6 89.8 282.6 89.8zM282.5 64.6c0-7.6-5-12.8-12.3-12.8 -7.6 0-12.8 5.3-12.7 13 0.1 7.5 5.3 12.7 12.6 12.6C277.4 77.4 282.5 72.1 282.5 64.6z"/><path class="st0" d="M152.4 58.2c4.5-5.2 9.1-10.2 13.3-15.5 2.1-2.6 4.4-3.5 7.7-3.4 4.6 0.2 9.2 0.1 15 0.1 -7.3 8.4-13.8 15.8-20.5 23.5 6.7 9 13.1 17.8 20.3 27.5 -7 0-12.9 0.2-18.8-0.1 -1.2-0.1-2.6-1.8-3.5-3.1 -4.6-6.7-9.1-13.5-14.4-21.5 0 9 0 16.5 0 24.4 -5.6 0-10.6 0-16 0 0-24.9 0-49.6 0-74.6 5.1 0 10 0 15.6 0 0 14.3 0 28.4 0 42.6C151.6 58.1 152 58.2 152.4 58.2z"/><path class="st0" d="M201.3 69.4c2.9 11.3 12.6 12.8 22.7 3.9 3.5 2.5 7 5.1 10.6 7.6 -6.6 10.3-22.5 13.6-35.1 7.6 -12.3-5.9-17.8-20-13.1-33.5 4.5-12.6 18.9-19.9 33-16.6 12.6 2.9 19.4 14.7 17.4 31C225.2 69.4 213.5 69.4 201.3 69.4zM221.2 58.5c-1.6-7.1-5.2-9.7-11.3-9 -5.1 0.6-8.2 4.1-8.2 9C208.1 58.5 214.5 58.5 221.2 58.5z"/><path class="st0" d="M94.3 89.8c-5.7 0-10.6 0-15.8 0 0-16.7 0-33.2 0-50 4.8 0 9.5 0 14.6 0 0.2 1.4 0.3 3 0.6 5.2 5.1-5.7 11.2-7.7 18.4-6.8 8 1 13.5 5 14.1 13 0.9 12.7 0.2 25.5 0.2 38.5 -4.6 0-9.7 0-15.1 0 0-9.6 0.2-18.9-0.1-28.2 -0.2-7.5-5.1-11.2-11.5-8.8 -4.5 1.7-5.5 5.5-5.6 9.7 -0.1 7.2 0 14.3-0.1 21.5C94.3 85.7 94.3 87.5 94.3 89.8z"/><path class="st0" d="M16.3 74.9c10.5 0 20.1 0 30 0 0 5.3 0 10.1 0 15.3 -15.5 0-30.7 0-46.3 0 0-24.9 0-49.6 0-74.7 5.3 0 10.5 0 16.3 0C16.3 35 16.3 54.6 16.3 74.9z"/><path class="st0" d="M54 39.6c5.2 0 10 0 15.2 0 0 16.7 0 33.3 0 50.2 -5 0-9.9 0-15.2 0C54 73 54 56.4 54 39.6z"/><path class="st0" d="M71 23.4c-0.1 5.2-4 9.2-9.2 9.2 -5.3 0-9.5-4.2-9.3-9.5 0.2-5.1 4.3-9 9.4-8.9C67 14.2 71 18.3 71 23.4z"/></svg>
 