<svg xmlns="http://www.w3.org/2000/svg" viewBox="0 0 76.6 61.2"><style type="text/css">  
	.st0{fill:#E3E6EC;}
</style><path class="st0" d="M38.5 34L38.5 34c0.4 0 0.9-0.1 1.2-0.4h0.2l1.1-0.9 24.8-20.7c0-0.1-0.1-0.1-0.2-0.1h-54.4c-0.1 0-0.1 0.1-0.1 0.1 0 0 0 0 0 0l26.2 21.5C37.6 33.9 38.1 34 38.5 34zM11 14.9v30.6l18.7-15.2L11 14.9zM47.3 30.5l18.7 15v-30.4L47.3 30.5zM41.3 35.3c-1.6 1.3-3.8 1.3-5.4 0l-4.3-3.5 -20.7 16.6 0 0c0 0.1 0.1 0.2 0.2 0.2h54.4c0.1 0 0.2-0.1 0.2-0.2l0 0 -20.4-16.5L41.3 35.3z"/></svg>