<?xml version="1.0" encoding="UTF-8"?> <svg xmlns="http://www.w3.org/2000/svg" viewBox="-14722 11114 516.384 80.4"> <defs> <style> .cls-1 { fill: #e27c00; } .cls-2 { fill: #f5c400; } </style> </defs> <g id="Group_61" data-name="Group 61" transform="translate(-14722 11113.9)"> <g id="Group_58" data-name="Group 58" transform="translate(0 27.797)"> <g id="Group_57" data-name="Group 57"> <path id="Path_40" data-name="Path 40" class="cls-1" d="M7.956,76.67a14.219,14.219,0,0,1-5.862-5.563A17.1,17.1,0,0,1,0,62.552,17.1,17.1,0,0,1,2.094,54a13.989,13.989,0,0,1,5.862-5.623A18.612,18.612,0,0,1,16.69,46.4,18.494,18.494,0,0,1,27.4,49.331v6.341a13.22,13.22,0,0,0-4.427-2.393,20.493,20.493,0,0,0-5.683-.718,10.431,10.431,0,0,0-7.6,2.692,9.6,9.6,0,0,0-2.812,7.238,9.641,9.641,0,0,0,2.812,7.3,10.528,10.528,0,0,0,7.6,2.692,19.193,19.193,0,0,0,5.8-.778,14.742,14.742,0,0,0,4.666-2.512v6.341c-2.692,1.974-6.4,2.991-11.067,2.991A17.239,17.239,0,0,1,7.956,76.67Z" transform="translate(0 -46.4)"></path> <path id="Path_41" data-name="Path 41" class="cls-1" d="M91.24,66.344,86.873,54.619,82.506,66.344ZM83.583,47.5h6.58l12.323,30.868h-6.82l-2.632-6.7H80.771l-2.632,6.7H71.2L83.583,47.5Z" transform="translate(-28.607 -46.842)"></path> <path id="Path_42" data-name="Path 42" class="cls-1" d="M151.27,75.5a13.324,13.324,0,0,1-3.47-9.571V47.5h6.7V65.985a6.784,6.784,0,0,0,1.854,5.145,8.016,8.016,0,0,0,10.11,0,6.924,6.924,0,0,0,1.854-5.145V47.5h6.7V65.925c0,4.008-1.137,7.179-3.41,9.571s-5.683,3.529-10.17,3.529-7.9-1.137-10.17-3.529Z" transform="translate(-59.384 -46.842)"></path> <path id="Path_43" data-name="Path 43" class="cls-1" d="M228.746,78.226A17.718,17.718,0,0,1,224.2,76.79V70.868a22.761,22.761,0,0,0,9.631,2.333,6.919,6.919,0,0,0,3.888-.9,2.8,2.8,0,0,0,1.316-2.453,2.854,2.854,0,0,0-.658-1.914,5.529,5.529,0,0,0-1.914-1.436c-.837-.419-2.154-1.017-3.888-1.675a17.749,17.749,0,0,1-6.281-3.948,8.332,8.332,0,0,1-.479-9.99,9.376,9.376,0,0,1,3.948-3.111,15.373,15.373,0,0,1,5.922-1.077,23.2,23.2,0,0,1,4.846.419,19.682,19.682,0,0,1,4.128,1.376v5.743a16.956,16.956,0,0,0-7.777-1.914,7.819,7.819,0,0,0-3.888.838,2.721,2.721,0,0,0-1.436,2.453,2.969,2.969,0,0,0,.658,1.914,5.673,5.673,0,0,0,1.854,1.316c.778.359,2.094.957,3.888,1.675a33.069,33.069,0,0,1,4.905,2.513A8.49,8.49,0,0,1,245.5,65.9a9.111,9.111,0,0,1,.837,4.068,7.715,7.715,0,0,1-3.051,6.521c-2.034,1.555-5.025,2.333-9.033,2.333a35.167,35.167,0,0,1-5.5-.6Z" transform="translate(-90.081 -46.521)"></path> <path id="Path_44" data-name="Path 44" class="cls-1" d="M292.6,47.5l21.416.06v5.563H299.3V60.3h10.828v5.384H299.3V72.8h14.716v5.623H292.6Z" transform="translate(-117.563 -46.842)"></path> <path id="Path_45" data-name="Path 45" class="cls-1" d="M365.8,47.6h21.476v5.623H372.56V60.4h10.828v5.2H372.56V78.468H365.8Z" transform="translate(-146.973 -46.882)"></path> <path id="Path_46" data-name="Path 46" class="cls-1" d="M449.3,71.266a9.2,9.2,0,0,0,3.47-3.47,11.409,11.409,0,0,0,0-10.409,8.8,8.8,0,0,0-3.47-3.47,9.62,9.62,0,0,0-4.905-1.2,10.092,10.092,0,0,0-4.905,1.2,9.2,9.2,0,0,0-3.47,3.47,10.474,10.474,0,0,0-1.256,5.2,10.316,10.316,0,0,0,1.256,5.2,9.2,9.2,0,0,0,3.47,3.47,9.771,9.771,0,0,0,4.905,1.2,9.471,9.471,0,0,0,4.905-1.2Zm-13.22,5.384a15.036,15.036,0,0,1-5.922-5.683,17.362,17.362,0,0,1,0-16.75,14.637,14.637,0,0,1,5.922-5.683,17.25,17.25,0,0,1,8.435-2.034,17.019,17.019,0,0,1,8.375,2.034,15.44,15.44,0,0,1,5.922,5.683,17.361,17.361,0,0,1,0,16.75,15.035,15.035,0,0,1-5.922,5.683,17.019,17.019,0,0,1-8.375,2.034,17.933,17.933,0,0,1-8.435-2.034Z" transform="translate(-171.965 -46.44)"></path> <path id="Path_47" data-name="Path 47" class="cls-1" d="M522.6,62.376a6.837,6.837,0,0,0,4.068-1.077,4.137,4.137,0,0,0,1.5-3.47,4.005,4.005,0,0,0-1.436-3.529,6.72,6.72,0,0,0-4.068-1.017h-5.5V62.5H522.6ZM510.4,47.6h13.4c3.529,0,6.221.9,8.2,2.632s2.931,4.307,2.931,7.6a10.372,10.372,0,0,1-1.615,5.862,9.454,9.454,0,0,1-4.487,3.529l5.862,11.306h-6.879l-5.444-10.469H517.1V78.528h-6.7V47.6Z" transform="translate(-205.072 -46.882)"></path> <path id="Path_48" data-name="Path 48" class="cls-1" d="M585.656,76.71a14.22,14.22,0,0,1-5.863-5.563,16.868,16.868,0,0,1-2.094-8.495,17.1,17.1,0,0,1,2.094-8.554,13.989,13.989,0,0,1,5.863-5.623,20.7,20.7,0,0,1,19.442.957v6.341a13.221,13.221,0,0,0-4.427-2.393,20.493,20.493,0,0,0-5.683-.718,10.431,10.431,0,0,0-7.6,2.692,9.6,9.6,0,0,0-2.812,7.238,9.642,9.642,0,0,0,2.812,7.3,10.626,10.626,0,0,0,7.6,2.692,19.193,19.193,0,0,0,5.8-.778,14.742,14.742,0,0,0,4.666-2.512v6.341c-2.692,1.974-6.4,2.991-11.067,2.991a17.9,17.9,0,0,1-8.734-1.914Z" transform="translate(-232.112 -46.44)"></path> <path id="Path_49" data-name="Path 49" class="cls-1" d="M655.6,47.6h21.416v5.563H662.3v7.179h10.828v5.384H662.3v7.119h14.716v5.623H655.6Z" transform="translate(-263.411 -46.882)"></path> </g> </g> <g id="Group_60" data-name="Group 60" transform="translate(439.531 0.1)"> <g id="Group_59" data-name="Group 59" transform="translate(63.567 72.743)"> <path id="Path_50" data-name="Path 50" class="cls-2" d="M841,122.358h.957v3.171h.718v-3.171h.957V121.7H841Z" transform="translate(-841 -121.7)"></path> <path id="Path_51" data-name="Path 51" class="cls-2" d="M849.47,121.7l-1.2,2.871-1.137-2.871H846.3v3.829h.718v-2.393l.957,2.393h.6l1.017-2.393v2.393h.718V121.7Z" transform="translate(-843.129 -121.7)"></path> </g> <path id="Path_52" data-name="Path 52" class="cls-2" d="M807.817,35.1c-1.256-.718-5.025-2.871-20.937,0-1.376.239-2.752.538-4.068.778,1.017-1.137,2.154-2.393,3.23-3.709C794.836,21.815,796.631,16.73,796.93,13.8a36.553,36.553,0,0,1,6.879,8.794,35.414,35.414,0,0,1,4.606,12.8,5.546,5.546,0,0,0-.6-.3Zm-27.1,5.922c9.691-2.213,21.356-3.948,24.826-1.974.778.479,1.256,1.675,1.436,3.29a2.341,2.341,0,0,1-.6.479c-4.128,2.333-16.63.3-25.663-1.795Zm26.142,3.888a32.382,32.382,0,0,1-4.427,12.383,35.088,35.088,0,0,1-5.862,7.717c-.778-3.111-3.29-8.076-10.588-16.69-1.675-1.974-3.29-3.829-4.786-5.384,8.435,1.854,20.818,3.948,25.663,1.555v.419ZM787.777,68.835c-2.513-1.914-5.444-8.315-7.956-15.195,5.563,6.64,8.973,12.024,8.973,14.058a3.036,3.036,0,0,1-1.017,1.137ZM773.24,72.364a30.82,30.82,0,0,1-11.725-2.034c4.128-4.367,7.956-15.075,10.289-22.493.3-.359.658-.658.957-1.017.718,2.333,1.615,5.145,2.632,8.076,3.35,9.392,6.042,13.819,7.956,16.032a32.149,32.149,0,0,1-10.11,1.436ZM742.672,57.947a35.522,35.522,0,0,1-4.546-12.383c.12.06.179.12.3.179,1.256.718,5.025,2.871,20.937,0,1.436-.239,2.752-.538,4.068-.778-1.017,1.077-2.034,2.273-3.051,3.47C751.585,58.785,749.791,63.87,749.491,66.8a41.285,41.285,0,0,1-6.82-8.854Zm23.39-18.365c-9.811,2.273-21.835,4.128-25.364,2.094-.778-.419-1.256-1.615-1.376-3.29a2.685,2.685,0,0,1,.778-.658,12.842,12.842,0,0,1,5.922-1.017c5.743,0,13.759,1.436,20.04,2.871ZM743.808,23.43a34.024,34.024,0,0,1,6.042-7.9c.778,3.111,3.29,8.076,10.588,16.69,1.675,1.974,3.29,3.829,4.786,5.384-8.554-1.914-21.117-4.008-25.843-1.436a31.447,31.447,0,0,1,4.427-12.742Zm14.656-11.486c2.453,1.795,5.264,7.777,7.717,14.417-5.324-6.341-8.555-11.486-8.555-13.46a2.223,2.223,0,0,1,.838-.957ZM773.24,8.176a30.82,30.82,0,0,1,11.725,2.034c-4.128,4.367-7.956,15.075-10.289,22.493-.359.419-.778.838-1.2,1.256-.658-2.213-1.735-5.623-2.632-8.076-3.41-9.512-6.162-13.938-8.016-16.152A32.914,32.914,0,0,1,773.24,8.176Zm4.307,21.356c2.513-7.418,5.863-15.613,9.093-18.545,1.376.778,2.094,1.5,2.154,1.854,0,2.333-4.307,8.913-11.246,16.69Zm-19.92,38.106c0-2.273,4.307-8.854,11.246-16.63-2.513,7.418-5.863,15.613-9.093,18.485-1.376-.718-2.034-1.436-2.154-1.854Zm52.643-30.09a12.65,12.65,0,0,0-.12-2.094A35.138,35.138,0,0,0,805.3,21.815a35.8,35.8,0,0,0-8.495-10.289C795.614,4.826,786.042.1,773.24.1c-11.306,0-20.1,3.649-22.792,9.093-3.709,2.393-7.478,6.58-10.588,11.964-5.2,9.033-6.521,17.887-3.589,22.373.06,4.247,1.735,9.751,4.905,15.254a35.8,35.8,0,0,0,8.495,10.289c1.2,6.7,10.768,11.426,23.57,11.426,11.246,0,19.98-3.649,22.792-9.033,3.649-2.393,7.358-6.521,10.469-11.9a37.481,37.481,0,0,0,5.025-14.237,13.948,13.948,0,0,0-1.256-7.777Z" transform="translate(-734.739 -0.1)"></path> </g> </g> </svg> 