<?xml version="1.0" encoding="UTF-8"?> <svg xmlns="http://www.w3.org/2000/svg" viewBox="-14463.47 11214 76.854 80.4"> <defs> <style> .cls-1 { fill: #f5c400; } </style> </defs> <g id="Group_236" data-name="Group 236" transform="translate(-14463.47 11214)"> <path id="Path_52" data-name="Path 52" class="cls-1" d="M807.817,35.1c-1.256-.718-5.025-2.871-20.937,0-1.376.239-2.752.538-4.068.778,1.017-1.137,2.154-2.393,3.23-3.709C794.836,21.815,796.631,16.73,796.93,13.8a36.553,36.553,0,0,1,6.879,8.794,35.414,35.414,0,0,1,4.606,12.8,5.546,5.546,0,0,0-.6-.3Zm-27.1,5.922c9.691-2.213,21.356-3.948,24.826-1.974.778.479,1.256,1.675,1.436,3.29a2.341,2.341,0,0,1-.6.479c-4.128,2.333-16.63.3-25.663-1.795Zm26.142,3.888a32.382,32.382,0,0,1-4.427,12.383,35.088,35.088,0,0,1-5.862,7.717c-.778-3.111-3.29-8.076-10.588-16.69-1.675-1.974-3.29-3.829-4.786-5.384,8.435,1.854,20.818,3.948,25.663,1.555v.419ZM787.777,68.835c-2.513-1.914-5.444-8.315-7.956-15.195,5.563,6.64,8.973,12.024,8.973,14.058a3.036,3.036,0,0,1-1.017,1.137ZM773.24,72.364a30.82,30.82,0,0,1-11.725-2.034c4.128-4.367,7.956-15.075,10.289-22.493.3-.359.658-.658.957-1.017.718,2.333,1.615,5.145,2.632,8.076,3.35,9.392,6.042,13.819,7.956,16.032a32.149,32.149,0,0,1-10.11,1.436ZM742.672,57.947a35.522,35.522,0,0,1-4.546-12.383c.12.06.179.12.3.179,1.256.718,5.025,2.871,20.937,0,1.436-.239,2.752-.538,4.068-.778-1.017,1.077-2.034,2.273-3.051,3.47C751.585,58.785,749.791,63.87,749.491,66.8a41.285,41.285,0,0,1-6.82-8.854Zm23.39-18.365c-9.811,2.273-21.835,4.128-25.364,2.094-.778-.419-1.256-1.615-1.376-3.29a2.685,2.685,0,0,1,.778-.658,12.842,12.842,0,0,1,5.922-1.017c5.743,0,13.759,1.436,20.04,2.871ZM743.808,23.43a34.024,34.024,0,0,1,6.042-7.9c.778,3.111,3.29,8.076,10.588,16.69,1.675,1.974,3.29,3.829,4.786,5.384-8.554-1.914-21.117-4.008-25.843-1.436a31.447,31.447,0,0,1,4.427-12.742Zm14.656-11.486c2.453,1.795,5.264,7.777,7.717,14.417-5.324-6.341-8.555-11.486-8.555-13.46a2.223,2.223,0,0,1,.838-.957ZM773.24,8.176a30.82,30.82,0,0,1,11.725,2.034c-4.128,4.367-7.956,15.075-10.289,22.493-.359.419-.778.838-1.2,1.256-.658-2.213-1.735-5.623-2.632-8.076-3.41-9.512-6.162-13.938-8.016-16.152A32.914,32.914,0,0,1,773.24,8.176Zm4.307,21.356c2.513-7.418,5.863-15.613,9.093-18.545,1.376.778,2.094,1.5,2.154,1.854,0,2.333-4.307,8.913-11.246,16.69Zm-19.92,38.106c0-2.273,4.307-8.854,11.246-16.63-2.513,7.418-5.863,15.613-9.093,18.485-1.376-.718-2.034-1.436-2.154-1.854Zm52.643-30.09a12.65,12.65,0,0,0-.12-2.094A35.138,35.138,0,0,0,805.3,21.815a35.8,35.8,0,0,0-8.495-10.289C795.614,4.826,786.042.1,773.24.1c-11.306,0-20.1,3.649-22.792,9.093-3.709,2.393-7.478,6.58-10.588,11.964-5.2,9.033-6.521,17.887-3.589,22.373.06,4.247,1.735,9.751,4.905,15.254a35.8,35.8,0,0,0,8.495,10.289c1.2,6.7,10.768,11.426,23.57,11.426,11.246,0,19.98-3.649,22.792-9.033,3.649-2.393,7.358-6.521,10.469-11.9a37.481,37.481,0,0,0,5.025-14.237,13.948,13.948,0,0,0-1.256-7.777Z" transform="translate(-734.739 -0.1)"></path> </g> </svg> 