<?xml version="1.0" encoding="UTF-8"?> <svg xmlns="http://www.w3.org/2000/svg" viewBox="0 0 414 32"> <style type="text/css">.st0{fill:#E27C00;}</style> <path class="st0" d="M8 30C5.5 28.7 3.5 26.8 2.1 24.4 0.7 21.8-0.1 18.8 0 15.9c-0.1-3 0.7-5.9 2.1-8.6 1.4-2.4 3.4-4.4 5.9-5.6 2.7-1.4 5.7-2 8.7-2 3.8-0.1 7.5 0.9 10.7 2.9v6.3c-1.3-1.1-2.8-1.9-4.4-2.4 -1.9-0.5-3.8-0.7-5.7-0.7 -2.8-0.2-5.5 0.8-7.6 2.7 -1.9 1.9-2.9 4.5-2.8 7.2C6.7 18.5 7.8 21.2 9.7 23.1c2.1 1.9 4.8 2.8 7.6 2.7 2 0 3.9-0.2 5.8-0.8 1.7-0.5 3.3-1.4 4.7-2.5V28.8c-2.7 2-6.4 3-11.1 3C13.7 32 10.7 31.3 8 30z"></path> <path class="st0" d="M62.6 19.2l-4.4-11.7L53.9 19.2H62.6zM55 0.4h6.6L73.9 31.2h-6.8l-2.6-6.7H52.2l-2.6 6.7h-6.9L55 0.4z"></path> <path class="st0" d="M91.9 28.4c-2.4-2.6-3.6-6-3.5-9.6v-18.4h6.7V18.8C95 20.7 95.7 22.6 97 24c2.9 2.4 7.2 2.4 10.1 0 1.3-1.4 2-3.2 1.9-5.1v-18.5h6.7V18.8c0 4-1.1 7.2-3.4 9.6s-5.7 3.5-10.2 3.5S94.2 30.7 91.9 28.4L91.9 28.4z"></path> <path class="st0" d="M138.7 31.4c-1.6-0.3-3.1-0.8-4.5-1.4v-5.9c3 1.5 6.3 2.3 9.6 2.3 1.4 0.1 2.7-0.2 3.9-0.9 0.8-0.5 1.3-1.5 1.3-2.5 0-0.7-0.2-1.4-0.7-1.9 -0.5-0.6-1.2-1.1-1.9-1.4 -0.8-0.4-2.2-1-3.9-1.7 -2.3-0.9-4.5-2.2-6.3-3.9 -2.4-2.9-2.6-6.9-0.5-10 1-1.4 2.4-2.5 3.9-3.1 1.9-0.7 3.9-1.1 5.9-1.1 1.6 0 3.2 0.1 4.8 0.4 1.4 0.3 2.8 0.8 4.1 1.4v5.7c-2.4-1.2-5.1-1.9-7.8-1.9 -1.3-0.1-2.7 0.2-3.9 0.8 -0.9 0.5-1.5 1.4-1.4 2.5 0 0.7 0.2 1.4 0.7 1.9 0.5 0.6 1.2 1 1.9 1.3 0.8 0.4 2.1 1 3.9 1.7 1.7 0.7 3.3 1.5 4.9 2.5 1.1 0.7 2 1.7 2.6 2.9 0.6 1.3 0.9 2.7 0.8 4.1 0.1 2.5-1 5-3.1 6.5 -2 1.6-5 2.3-9 2.3C142.3 31.9 140.5 31.7 138.7 31.4L138.7 31.4z"></path> <path class="st0" d="M175 0.4l21.4 0.1v5.6h-14.7v7.2h10.8v5.4h-10.8v7.1h14.7v5.6H175V0.4z"></path> <path class="st0" d="M218.8 0.4h21.5v5.6h-14.7v7.2h10.8v5.2h-10.8V31.3h-6.8V0.4z"></path> <path class="st0" d="M277.3 24.5c1.4-0.8 2.6-2 3.5-3.5 1.7-3.3 1.7-7.1 0-10.4 -0.8-1.5-2-2.7-3.5-3.5 -1.5-0.8-3.2-1.2-4.9-1.2 -1.7 0-3.4 0.4-4.9 1.2 -1.4 0.8-2.6 2-3.5 3.5 -0.9 1.6-1.3 3.4-1.3 5.2 0 1.8 0.4 3.6 1.3 5.2 0.8 1.4 2 2.6 3.5 3.5 1.5 0.8 3.2 1.2 4.9 1.2C274.1 25.8 275.8 25.4 277.3 24.5L277.3 24.5zM264.1 29.9c-2.5-1.3-4.5-3.3-5.9-5.7 -2.9-5.2-2.9-11.5 0-16.8 1.4-2.4 3.4-4.4 5.9-5.7 2.6-1.4 5.5-2.1 8.4-2 2.9-0.1 5.8 0.6 8.4 2 2.5 1.3 4.5 3.3 5.9 5.7 2.9 5.2 2.9 11.5 0 16.8 -1.4 2.4-3.5 4.4-5.9 5.7 -2.6 1.4-5.5 2.1-8.4 2C269.6 32 266.7 31.3 264.1 29.9z"></path> <path class="st0" d="M317.5 15.2c1.4 0.1 2.9-0.3 4.1-1.1 1-0.8 1.6-2.1 1.5-3.5 0.1-1.3-0.4-2.7-1.4-3.5 -1.2-0.8-2.6-1.1-4.1-1h-5.5v9.2h5.4V15.2zM305.3 0.4h13.4c3.5 0 6.2 0.9 8.2 2.6s2.9 4.3 2.9 7.6c0.1 2.1-0.5 4.1-1.6 5.9 -1.1 1.6-2.7 2.8-4.5 3.5l5.9 11.3h-6.9l-5.4-10.5H312V31.3h-6.7L305.3 0.4 305.3 0.4z"></path> <path class="st0" d="M353.5 30c-2.5-1.2-4.5-3.2-5.9-5.6 -1.4-2.6-2.2-5.5-2.1-8.5 -0.1-3 0.7-5.9 2.1-8.6 1.4-2.4 3.4-4.4 5.9-5.6 6.2-2.9 13.5-2.6 19.4 1v6.3c-1.3-1.1-2.8-1.9-4.4-2.4 -1.9-0.5-3.8-0.7-5.7-0.7 -2.8-0.2-5.5 0.8-7.6 2.7 -1.9 1.9-2.9 4.5-2.8 7.2 -0.1 2.7 0.9 5.4 2.8 7.3 2.1 1.9 4.8 2.8 7.6 2.7 2 0 3.9-0.2 5.8-0.8 1.7-0.5 3.3-1.4 4.7-2.5v6.3c-2.7 2-6.4 3-11.1 3C359.2 32 356.2 31.3 353.5 30L353.5 30z"></path> <path class="st0" d="M392.2 0.4h21.4v5.6h-14.7v7.2h10.8v5.4h-10.8v7.1h14.7v5.6h-21.4V0.4z"></path> </svg> 